<svg width="60" height="60" viewBox="0 0 60 60" fill="none" xmlns="http://www.w3.org/2000/svg">
<rect width="60" height="60" rx="30" fill="white"/>
<g clip-path="url(#clip0_262_1839)">
<path fill-rule="evenodd" clip-rule="evenodd" d="M43.5677 23.7239C43.5464 23.7049 41.3396 22.0161 38.6639 19.971C35.9883 17.9259 33.7717 16.2264 33.7384 16.1954C33.6888 16.1486 33.7069 16.0675 33.8389 15.7487C34.0886 15.145 34.1642 14.6887 34.1322 13.971C34.1021 13.2871 34.0298 12.9744 33.7778 12.4346C33.3135 11.4398 32.5481 10.699 31.5733 10.3019C31.1452 10.1273 30.6624 10.01 30.3663 10.0086L30.1773 10.0077L30.1463 7.01189C30.1296 5.36386 30.1157 3.11212 30.1157 2.00803V0H29.7914V10.0077H29.5889C29.2794 10.0077 28.5506 10.2097 28.1665 10.4025C27.1518 10.9103 26.3897 11.7674 26.0343 12.8006C25.6687 13.8639 25.7563 15.0908 26.2683 16.0675L26.4457 16.4062L25.2573 17.4357C24.604 18.0023 22.6998 19.648 21.0258 21.0936C19.3518 22.5392 17.9711 23.7396 17.9577 23.7614C17.9442 23.7836 17.9841 23.849 18.0462 23.9078L18.1592 24.0139L18.4502 23.76C18.61 23.6205 20.5198 21.9697 22.6937 20.0919L26.6468 16.6777L26.8094 16.8755C27.0499 17.1679 27.5461 17.5779 27.9158 17.7892C28.3444 18.0343 28.8179 18.196 29.3795 18.2877L29.8377 18.3632V23.9073H30.162V18.3535L30.3821 18.3234C31.5784 18.1598 32.65 17.5696 33.2663 16.7347C33.3807 16.579 33.49 16.4562 33.5086 16.4618C33.5271 16.4669 35.7418 18.1552 38.4304 20.2137C41.1186 22.2718 43.3472 23.9671 43.3819 23.9805C43.4565 24.0093 43.6261 23.7753 43.5677 23.7239ZM29.8377 17.9907L29.4953 17.9615C29.0579 17.9245 28.4528 17.7211 28.0215 17.4658C27.699 17.2749 26.9151 16.5646 26.922 16.4701C26.9239 16.4451 27.4571 15.9683 28.1072 15.4105L29.2891 14.3958L29.171 14.2777L29.0524 14.1591L28.9472 14.2531C28.6136 14.5506 26.7937 16.1101 26.7464 16.1388C26.5917 16.2343 26.1904 15.0616 26.1464 14.3861C26.0241 12.499 27.3765 10.7481 29.2386 10.3825C29.3517 10.3603 29.5185 10.3399 29.6102 10.3371L29.7765 10.332L29.8071 11.5214C29.8238 12.1751 29.8377 13.8982 29.8377 15.3503V17.9907ZM33.3946 15.9341L32.5773 15.3109C32.1279 14.968 31.5654 14.5381 31.3268 14.3551L30.8931 14.0219L30.8065 14.1345C30.7592 14.1966 30.7194 14.2619 30.7189 14.2795C30.7189 14.2976 31.2814 14.7415 31.969 15.2664C32.657 15.7918 33.2199 16.2297 33.2199 16.2389C33.2199 16.3029 32.7024 16.8848 32.4652 17.0882C31.9185 17.5566 31.1442 17.899 30.4965 17.9592L30.162 17.9903V10.3195L30.4622 10.3501C31.0215 10.4076 31.7702 10.7004 32.2414 11.0465C32.512 11.2448 32.9707 11.7239 33.1694 12.0153C33.3719 12.3118 33.6091 12.8331 33.7115 13.2046C33.7722 13.4261 33.7949 13.6781 33.7958 14.1544C33.7972 14.8527 33.7398 15.1585 33.5123 15.67L33.3946 15.9341Z" fill="#333333"/>
<path fill-rule="evenodd" clip-rule="evenodd" d="M36.5557 49.807H36.2416L36.2133 48.8224C36.1976 48.2808 36.1642 46.3575 36.1392 44.5483C36.1142 42.739 36.0818 40.8769 36.0674 40.4104L36.0405 39.562L36.2171 39.5764L36.3936 39.5907L36.4705 44.2239C36.5131 46.7722 36.5493 49.0707 36.5516 49.332L36.5557 49.807Z" fill="#333333"/>
<path fill-rule="evenodd" clip-rule="evenodd" d="M33.3829 54.6719H33.035L33.0341 53.6178C33.0331 53.0382 33.0026 50.0099 32.9655 46.8881C32.9284 43.7667 32.8978 40.8427 32.8969 40.39L32.896 39.5676H33.2073L33.237 41.502C33.2537 42.5662 33.288 45.657 33.3139 48.3707C33.3399 51.0848 33.3658 53.6127 33.3718 53.9885L33.3829 54.6719Z" fill="#333333"/>
<path fill-rule="evenodd" clip-rule="evenodd" d="M30.223 60.0001H29.8949L29.8657 57.9962C29.85 56.894 29.8166 52.959 29.7916 49.251C29.7666 45.5435 29.7346 41.8481 29.7203 41.0387L29.6938 39.5676H30.0511L30.1076 47.224C30.1382 51.4351 30.1771 56.0322 30.1933 57.4402L30.223 60.0001Z" fill="#333333"/>
<path fill-rule="evenodd" clip-rule="evenodd" d="M27.119 54.6719H26.7905L26.7617 53.224C26.746 52.4275 26.7126 49.5244 26.6876 46.7723C26.6626 44.0201 26.6302 41.2736 26.6158 40.668L26.5898 39.5676H26.9471L27.0036 45.2549C27.0346 48.3828 27.0731 51.7812 27.0893 52.807L27.119 54.6719Z" fill="#333333"/>
<path fill-rule="evenodd" clip-rule="evenodd" d="M23.5366 49.807H23.2122L23.2108 49.2394C23.2104 48.9272 23.1798 46.952 23.1427 44.8495C23.1057 42.7474 23.0751 40.6991 23.0742 40.2974L23.0732 39.5676H23.3976L23.3985 39.9962C23.3994 40.232 23.43 42.1451 23.4671 44.2472C23.5041 46.3497 23.5347 48.4606 23.5352 48.9383L23.5366 49.807Z" fill="#333333"/>
<path fill-rule="evenodd" clip-rule="evenodd" d="M15.8505 34.2393L15.8361 34.4593L15.8222 34.6794L14.5134 34.6919L13.2045 34.704V37.8518L14.5134 37.8643L15.8222 37.8763V38.2933L14.2585 38.3058L12.6948 38.3179V34.2393H15.8505Z" fill="#333333"/>
<path d="M15.753 36.1853H13.7607V36.6023H15.753V36.1853Z" fill="#333333"/>
<path fill-rule="evenodd" clip-rule="evenodd" d="M19.8066 37.8763V38.2933L18.2429 38.3058L16.6792 38.3179V34.2393H17.1889V37.8518L18.4977 37.8643L19.8066 37.8763Z" fill="#333333"/>
<path fill-rule="evenodd" clip-rule="evenodd" d="M21.1732 34.7026V37.8532H23.7678V38.3165H20.6636V34.2393H23.7678V34.7026H21.1732Z" fill="#333333"/>
<path d="M23.7218 36.1853H21.7295V36.6023H23.7218V36.1853Z" fill="#333333"/>
<path fill-rule="evenodd" clip-rule="evenodd" d="M30.1535 38.2934L29.9195 38.3078C29.7912 38.3157 29.6624 38.3129 29.6341 38.3022C29.6054 38.2911 29.2607 37.6123 28.8678 36.7937C28.4744 35.9754 28.1413 35.3059 28.1265 35.3059C28.1117 35.3064 27.9245 35.6817 27.7104 36.1399C27.4968 36.5981 27.3087 36.973 27.2925 36.973C27.2768 36.973 27.0887 36.6074 26.8746 36.1603C26.661 35.7132 26.4715 35.3384 26.4534 35.3277C26.4358 35.3166 26.1027 35.9847 25.7131 36.8122L25.0042 38.3166H24.7285C24.527 38.3166 24.4584 38.3013 24.4751 38.2587C24.5914 37.9557 26.4321 34.1096 26.4539 34.1231C26.4701 34.1333 26.6573 34.5072 26.8704 34.9547C27.0836 35.4023 27.2721 35.7683 27.2902 35.7683C27.3078 35.7683 27.4964 35.3935 27.7095 34.9353C27.9222 34.4766 28.1117 34.1175 28.1311 34.1365C28.1501 34.1555 28.613 35.0988 29.1597 36.2326L30.1535 38.2934Z" fill="#333333"/>
<path d="M33.9161 36.1853H31.9238V36.6023H33.9161V36.1853Z" fill="#333333"/>
<path fill-rule="evenodd" clip-rule="evenodd" d="M31.3206 34.7026V37.8532H33.9615V38.3179L32.3978 38.3058L30.8341 38.2933L30.8221 36.3242C30.8151 35.2414 30.8198 34.3291 30.8323 34.2972C30.8494 34.2527 31.208 34.2393 32.408 34.2393H33.9615V34.7026H31.3206Z" fill="#333333"/>
<path fill-rule="evenodd" clip-rule="evenodd" d="M38.6409 34.2393V38.3165H37.876L36.6018 36.5216L35.3282 34.7262L35.3041 38.3216L35.0613 38.3077L34.8185 38.2933L34.8065 36.3242C34.7995 35.2414 34.8041 34.3291 34.8167 34.2972C34.8319 34.2573 34.9603 34.2393 35.2322 34.2393H35.6261L36.8668 36.0166L38.1081 37.7934L38.1201 36.0166L38.1322 34.2393H38.6409V34.2393Z" fill="#333333"/>
<path fill-rule="evenodd" clip-rule="evenodd" d="M46.693 38.2446C46.5507 38.3039 46.2871 38.3164 45.1756 38.3164H43.8306V37.8531H45.107C46.5605 37.8531 46.6021 37.8447 46.7523 37.5144C46.8542 37.2897 46.8602 37.2021 46.7916 36.9556C46.736 36.7555 46.5498 36.5558 46.4182 36.5558C46.345 36.5558 46.3325 36.5183 46.3325 36.301C46.3325 36.0021 46.3825 35.9822 46.7282 36.1448C47.5649 36.5382 47.5422 37.8897 46.693 38.2446Z" fill="#333333"/>
<path fill-rule="evenodd" clip-rule="evenodd" d="M47.31 34.2393L47.2956 34.4593L47.2817 34.6794L45.9524 34.7026L44.6236 34.7257L44.4809 34.8629C44.151 35.1789 44.2182 35.8229 44.5977 35.9813C44.7487 36.0444 44.7566 36.0592 44.7566 36.2788C44.7566 36.4854 44.746 36.5095 44.6556 36.5095C44.48 36.5095 44.1617 36.3242 44.0111 36.1342C43.855 35.9369 43.7373 35.6107 43.7373 35.3758C43.7373 35.1274 43.8731 34.7559 44.0283 34.5789C44.3146 34.2527 44.3785 34.2416 45.9288 34.2406L47.31 34.2393Z" fill="#333333"/>
<path fill-rule="evenodd" clip-rule="evenodd" d="M43.0424 34.2393V34.7026H41.5134V38.3165H41.0038V34.7049L40.2509 34.6924L39.498 34.6794L39.4836 34.4593L39.4697 34.2393H43.0424Z" fill="#333333"/>
<path d="M43.5061 31.5061H16.4019V31.9694H43.5061V31.5061Z" fill="#333333"/>
<path fill-rule="evenodd" clip-rule="evenodd" d="M40.4978 27.2654C40.6289 27.6147 40.9718 27.9854 41.3234 28.1582C41.5454 28.2671 41.6413 28.2856 41.9781 28.2856C42.3302 28.2856 42.4062 28.2694 42.6796 28.1346C42.9622 27.9956 43.2374 27.7542 43.3583 27.5392C43.4042 27.4572 43.4181 27.4619 43.5724 27.6115C43.6637 27.6995 43.7378 27.7968 43.7378 27.8279C43.7378 27.8589 43.6317 28.0007 43.502 28.1425C43.1953 28.4784 42.7305 28.7147 42.2505 28.7786C40.9051 28.9584 39.7222 27.7727 39.927 26.4495C40.1225 25.1865 41.3795 24.3984 42.6022 24.7723C42.921 24.87 43.1767 25.028 43.4339 25.2866C43.6354 25.489 43.9111 25.8866 43.8708 25.9171C43.8615 25.9241 43.7726 25.9788 43.6734 26.0385C43.4969 26.1446 43.4918 26.1451 43.4302 26.058C42.8246 25.2041 42.1347 24.9622 41.3313 25.3232C40.59 25.6558 40.2184 26.5213 40.4978 27.2654Z" fill="#333333"/>
<path fill-rule="evenodd" clip-rule="evenodd" d="M38.1314 25.1604V28.3064L38.8843 28.3193L39.6372 28.3318V28.7488L37.8882 28.7613L36.1392 28.7734V28.3087H37.6218V25.1581H36.1392V24.6938L39.6372 24.7179V25.1349L38.8843 25.1479L38.1314 25.1604Z" fill="#333333"/>
<path fill-rule="evenodd" clip-rule="evenodd" d="M35.4442 28.7452C35.4442 28.76 35.3233 28.7721 35.175 28.7721H34.9058L34.1696 27.2394L33.4334 25.7068L33.3324 25.9306C32.9548 26.7692 32.6101 27.4391 32.5758 27.4021C32.5535 27.3784 32.3589 26.9897 32.143 26.5384L31.7506 25.7179L31.0385 27.2274C30.647 28.0577 30.3027 28.7462 30.2735 28.7573C30.2443 28.7684 30.1169 28.7712 29.99 28.7633L29.7588 28.7489L30.4459 27.2895C30.8235 26.487 31.2715 25.5381 31.4416 25.1814L31.7506 24.5327L32.1745 25.4093L32.598 26.2855L32.9844 25.4556C33.1971 24.9988 33.3857 24.6092 33.4037 24.5892C33.4306 24.5591 35.4442 28.66 35.4442 28.7452Z" fill="#333333"/>
<path fill-rule="evenodd" clip-rule="evenodd" d="M28.1457 24.7511C27.6133 24.6172 27.1412 24.6636 26.6732 24.8948C25.141 25.6523 25.1276 27.7914 26.6501 28.5721C28.0085 29.269 29.6524 28.265 29.6524 26.7383C29.6524 25.8219 29.0037 24.9661 28.1457 24.7511ZM27.6935 28.3006C27.2422 28.334 26.8405 28.1839 26.4879 27.8503C25.6247 27.0334 25.9574 25.6569 27.118 25.2418C27.5702 25.0806 28.1535 25.1904 28.5631 25.5142C28.9556 25.8246 29.2317 26.4645 29.1668 26.9139C29.0626 27.6381 28.4149 28.2478 27.6935 28.3006Z" fill="#333333"/>
<path fill-rule="evenodd" clip-rule="evenodd" d="M24.7416 24.6951V28.7723H23.966L22.6974 26.9857L21.4288 25.1992L21.4047 28.7723H20.896V24.6951H21.7147L22.9615 26.4807L24.2087 28.2663L24.2208 26.4807L24.2328 24.6951H24.7416Z" fill="#333333"/>
<path fill-rule="evenodd" clip-rule="evenodd" d="M20.201 28.7186C20.201 28.7534 20.1056 28.7723 19.9313 28.7723H19.6612L18.8773 27.1753C18.4459 26.2973 18.0813 25.5778 18.0674 25.5768C18.0475 25.5768 16.8012 28.0917 16.734 28.2687C16.7252 28.291 17.1352 28.309 17.6467 28.309H18.5747L18.7161 28.5143C18.7939 28.6273 18.8574 28.7316 18.8574 28.7459C18.8574 28.7608 18.2004 28.7723 17.3979 28.7723C16.595 28.7723 15.9385 28.7571 15.938 28.7376C15.9371 28.6505 18.0456 24.4676 18.0748 24.4982C18.0934 24.5177 18.5794 25.4628 19.1548 26.5989C19.7303 27.735 20.201 28.6889 20.201 28.7186Z" fill="#333333"/>
</g>
<defs>
<clipPath id="clip0_262_1839">
<rect width="34.6476" height="60" fill="white" transform="translate(12.6948)"/>
</clipPath>
</defs>
</svg>
